<?xml version="1.0" encoding="utf-8"?><svg viewBox="0 0 101 222" xmlns="http://www.w3.org/2000/svg" xmlns:xlink="http://www.w3.org/1999/xlink"><style>:root>svg{display:none}:root>svg:target{display:block}</style><svg viewBox="0 0 100 221" id="$" xmlns="http://www.w3.org/2000/svg"><path d="M99.11 171.285c0 27.323-22.232 49.556-49.555 49.556C22.233 220.841 0 198.608 0 171.285c0-27.322 22.233-49.555 49.555-49.555 27.323 0 49.556 22.233 49.556 49.555zm-95.54 0c0 25.356 20.63 45.986 45.985 45.986 25.356 0 45.986-20.63 45.986-45.986 0-25.355-20.63-45.985-45.986-45.985-25.355 0-45.985 20.63-45.985 45.985zM99.114 50.15a1.78 1.78 0 11-3.56 0c0-25.356-20.63-45.986-45.986-45.986-25.355 0-45.985 20.63-45.985 45.986a1.78 1.78 0 11-3.56 0C.023 22.827 22.256.594 49.58.594c27.32 0 49.554 22.233 49.554 49.556h-.02z"/><path d="M40.012 162.532a3.952 3.952 0 003.008 3.84l3.362.843v-8.649h-2.394a3.971 3.971 0 00-3.966 3.966h-.01zm12.718 21.473h2.393a3.971 3.971 0 003.966-3.966 3.952 3.952 0 00-3.008-3.841l-3.362-.843v8.65h.01z"/><path d="M49.556 130.962c-22.233 0-40.333 18.09-40.333 40.334 0 22.243 18.09 40.333 40.333 40.333s40.334-18.09 40.334-40.333c0-22.244-18.09-40.334-40.334-40.334zm15.905 33.964H59.1v-3.186a3.192 3.192 0 00-3.185-3.185H52.73v10.243l4.902 1.228a10.31 10.31 0 017.817 10.013c0 5.693-4.632 10.325-10.325 10.325H52.73v8.057h-6.36v-8.057h-3.185c-5.267 0-9.544-4.278-9.544-9.544v-3.185h6.36v3.185a3.192 3.192 0 003.184 3.185h3.185v-10.243l-4.902-1.228a10.31 10.31 0 01-7.817-10.013c0-5.693 4.632-10.325 10.325-10.325h2.394v-8.056h6.36v8.056h3.185c5.267 0 9.545 4.278 9.545 9.544v3.186zM99.173 49.39v119.595a1.779 1.779 0 11-3.56 0V49.39a1.779 1.779 0 113.56 0zm-95.535-.26v119.595a1.78 1.78 0 11-3.56 0V49.129a1.779 1.779 0 113.56 0z"/></svg><svg viewBox="0 0 101 101" id="crown" xmlns="http://www.w3.org/2000/svg"><path d="M14.828 85.452c-19.49-19.49-19.49-51.199 0-70.688 19.49-19.49 51.198-19.49 70.688 0 19.49 19.49 19.49 51.198 0 70.688-19.49 19.489-51.198 19.489-70.688 0zm68.333-68.333c-18.191-18.19-47.786-18.19-65.972 0-18.192 18.191-18.192 47.786 0 65.972 18.19 18.191 47.785 18.191 65.972 0 18.191-18.19 18.191-47.785 0-65.972z"/><path d="M83.7 39.505a1.643 1.643 0 01-.398-.645c-1.73-5.119-4.555-9.654-8.394-13.494a34.663 34.663 0 00-13.494-8.394 1.667 1.667 0 01-1.133-1.578V3.246a1.664 1.664 0 012.067-1.616 49.872 49.872 0 0123.158 13.134 49.929 49.929 0 0113.13 23.158 1.689 1.689 0 01-.304 1.431 1.66 1.66 0 01-1.313.64H84.87c-.455 0-.872-.185-1.18-.493l.01.005zM77.264 23.01a37.979 37.979 0 018.792 13.65h8.787a46.608 46.608 0 00-11.688-19.54A46.562 46.562 0 0063.618 5.436v8.787a37.852 37.852 0 0113.65 8.792l-.004-.004zM14.827 85.452A49.913 49.913 0 011.693 62.293a1.673 1.673 0 01.304-1.426 1.66 1.66 0 011.312-.64h12.148c.716 0 1.351.455 1.579 1.133 1.73 5.118 4.554 9.654 8.394 13.494a34.664 34.664 0 0013.494 8.394 1.663 1.663 0 011.132 1.578v12.148c0 .512-.237.995-.64 1.313a1.671 1.671 0 01-1.43.303 49.929 49.929 0 01-23.16-13.129v-.01zM5.494 63.554a46.608 46.608 0 0011.689 19.542 46.608 46.608 0 0019.541 11.688v-8.787a37.905 37.905 0 01-13.65-8.788 37.98 37.98 0 01-8.792-13.65H5.494v-.005zm55.283 34.591a1.663 1.663 0 01-.488-1.18V84.817c0-.716.455-1.351 1.133-1.579 5.119-1.73 9.655-4.555 13.494-8.394A34.642 34.642 0 0083.31 61.35a1.663 1.663 0 011.578-1.133h12.148c.512 0 .995.238 1.313.64.318.403.427.934.303 1.427A49.978 49.978 0 0185.52 85.442a49.873 49.873 0 01-23.16 13.134 1.673 1.673 0 01-1.426-.303c-.052-.048-.105-.09-.152-.138l-.005.01zm2.844-12.153v8.787a46.607 46.607 0 0019.542-11.688A46.657 46.657 0 0094.85 63.55h-8.787c-1.92 5.147-4.873 9.73-8.792 13.65-3.916 3.915-8.504 6.873-13.65 8.792zM2.13 39.505a1.667 1.667 0 01-.436-1.583 49.872 49.872 0 0113.134-23.158A49.936 49.936 0 0137.986 1.63a1.673 1.673 0 011.427.303c.402.318.64.801.64 1.313v12.148c0 .716-.456 1.35-1.133 1.578-5.12 1.73-9.655 4.555-13.494 8.394a34.664 34.664 0 00-8.394 13.494 1.663 1.663 0 01-1.579 1.133H3.305c-.445 0-.872-.175-1.18-.483l.005-.005zm34.59-34.07a46.609 46.609 0 00-19.54 11.69A46.658 46.658 0 005.49 36.666h8.788c1.92-5.147 4.872-9.73 8.792-13.65a37.981 37.981 0 0113.65-8.793V5.436z"/><path d="M77.267 23.01c-14.94-14.939-39.254-14.944-54.194 0-14.944 14.945-14.94 39.255 0 54.195 14.94 14.94 39.25 14.944 54.195 0 14.944-14.945 14.94-39.255 0-54.194z"/><path d="M63.994 63.785l-27.527.183a2.1 2.1 0 00-2.086 2.113l.006.981a2.1 2.1 0 002.114 2.086l27.528-.182a2.1 2.1 0 002.085-2.114l-.006-.981a2.1 2.1 0 00-2.114-2.086zM40.217 47.169c-.298 0-.602-.066-.877-.2l-2.147-1.037a1.984 1.984 0 01-.971-2.522l.986-2.455a1.977 1.977 0 012.815-.98l2.56 1.459a1.985 1.985 0 01.65 2.844l-1.404 2.033c-.365.53-.972.853-1.617.853l.005.005zm19.815-.133a1.986 1.986 0 01-1.626-.834l-1.388-1.957c-.323-.45-.436-1.02-.323-1.56.114-.54.455-1.014.934-1.294l2.64-1.55c.299-.175.64-.27.986-.274a1.983 1.983 0 011.844 1.218l.995 2.384a1.991 1.991 0 01-.938 2.536l-2.247 1.123a2 2 0 01-.872.208h-.005z"/><path d="M38.055 62.128a2.86 2.86 0 01-2.707-1.887l-4.592-12.64a4.877 4.877 0 01-2.716.435 4.85 4.85 0 01-4.223-4.773 4.855 4.855 0 014.815-4.881 4.848 4.848 0 014.877 4.815 4.79 4.79 0 01-.322 1.763 5.304 5.304 0 01-.436.868l8.735 4.227 6.683-9.683a4.893 4.893 0 01-2.052-1.654 4.82 4.82 0 01-.896-2.773 4.855 4.855 0 015.176-4.872 4.858 4.858 0 014.503 4.474 4.833 4.833 0 01-.863 3.143 4.892 4.892 0 01-1.237 1.223 4.397 4.397 0 01-.801.44l6.801 9.584 8.594-4.299a5.01 5.01 0 01-.384-.967 4.713 4.713 0 01-.176-1.265 4.844 4.844 0 119.688-.062 4.853 4.853 0 01-4.507 4.868l-.304.01a4.96 4.96 0 01-1.445-.21 4.705 4.705 0 01-.872-.364L65.08 60.042a2.86 2.86 0 01-2.682 1.92l-24.343.16v.006z"/></svg><svg viewBox="0 0 32 32" id="fb" xmlns="http://www.w3.org/2000/svg"><g clip-path="url(#ca)"><path fill-rule="evenodd" clip-rule="evenodd" d="M0 16c0 8.82 7.176 16 16 16 8.82 0 16-7.18 16-16S24.82 0 16 0 0 7.18 0 16zM5.942 4.97A14.877 14.877 0 0116 1.065c3.87 0 7.4 1.479 10.056 3.901l-1.188 1.188A13.201 13.201 0 0016 2.75c-3.412 0-6.522 1.29-8.87 3.407L5.941 4.969zm-.974.974A14.877 14.877 0 001.066 16c0 3.87 1.479 7.4 3.9 10.055l1.188-1.187A13.201 13.201 0 012.75 16c0-3.41 1.288-6.52 3.405-8.869L4.968 5.944zM5.94 27.03A14.877 14.877 0 0016 30.934c3.87 0 7.4-1.478 10.055-3.9l-1.188-1.188A13.201 13.201 0 0116 29.25c-3.412 0-6.523-1.29-8.871-3.407L5.94 27.03zM30.934 16a14.88 14.88 0 01-3.905 10.06l-1.187-1.188A13.201 13.201 0 0029.25 16c0-3.412-1.29-6.522-3.407-8.87l1.187-1.188A14.877 14.877 0 0130.934 16z"/><path d="M18.073 11.547h1.254v-2.12a17.407 17.407 0 00-1.827-.093c-1.813 0-3.053 1.106-3.053 3.133v1.746H12.4v2.374h2.047v6.08H16.9v-6.08h2.04l.307-2.373H16.9V12.7c0-.7.187-1.153 1.173-1.153z"/></g><defs><clipPath id="ca"><path d="M0 0h32v32H0z"/></clipPath></defs></svg><svg viewBox="0 0 32 32" id="in" xmlns="http://www.w3.org/2000/svg"><g clip-path="url(#da)"><path fill-rule="evenodd" clip-rule="evenodd" d="M0 16c0 8.82 7.176 16 16 16 8.82 0 16-7.18 16-16S24.82 0 16 0 0 7.18 0 16zM5.942 4.97A14.877 14.877 0 0116 1.065c3.87 0 7.4 1.479 10.056 3.901l-1.188 1.188A13.201 13.201 0 0016 2.75c-3.412 0-6.522 1.29-8.87 3.407L5.941 4.969zm-.974.974A14.877 14.877 0 001.066 16c0 3.87 1.479 7.4 3.9 10.055l1.188-1.187A13.201 13.201 0 012.75 16c0-3.41 1.288-6.52 3.405-8.869L4.968 5.944zM5.94 27.03A14.877 14.877 0 0016 30.934c3.87 0 7.4-1.478 10.055-3.9l-1.188-1.188A13.201 13.201 0 0116 29.25c-3.412 0-6.523-1.29-8.871-3.407L5.94 27.03zM30.934 16a14.88 14.88 0 01-3.905 10.06l-1.187-1.188A13.201 13.201 0 0029.25 16c0-3.412-1.29-6.522-3.407-8.87l1.187-1.188A14.877 14.877 0 0130.934 16z"/><path d="M16 9.5c1.766 0 1.986.007 2.68.039.692.033 1.163.141 1.578.302.428.165.79.389 1.151.75.33.325.587.718.75 1.152.16.413.27.885.302 1.578.03.693.039.913.039 2.679 0 1.766-.006 1.986-.039 2.68-.032.692-.142 1.163-.302 1.578a3.174 3.174 0 01-.75 1.151c-.325.33-.718.586-1.151.75-.415.16-.886.27-1.579.302-.693.03-.913.039-2.679.039-1.766 0-1.986-.006-2.68-.039-.692-.032-1.163-.142-1.578-.302a3.178 3.178 0 01-1.151-.75 3.188 3.188 0 01-.75-1.151c-.16-.415-.27-.886-.302-1.579-.03-.693-.039-.913-.039-2.679 0-1.766.007-1.986.039-2.68.033-.692.141-1.163.302-1.578a3.17 3.17 0 01.75-1.151 3.183 3.183 0 011.152-.75c.414-.16.885-.27 1.578-.302.693-.03.913-.039 2.679-.039zm0 3.25a3.25 3.25 0 100 6.5 3.25 3.25 0 000-6.5zm4.225-.162a.812.812 0 10-1.624 0 .812.812 0 001.624 0zM16 14.05a1.95 1.95 0 110 3.9 1.95 1.95 0 010-3.9z"/></g><defs><clipPath id="da"><path d="M0 0h32v32H0z"/></clipPath></defs></svg><svg viewBox="0 0 16 16" id="lang" xmlns="http://www.w3.org/2000/svg"><path d="M14.17 3.719C12.798 1.84 11 .775 8.635.5a11.684 11.684 0 012.354 4.22c1.106-.229 2.154-.527 3.18-1.001zM4.25 5.523c-.42-.11-.828-.217-1.23-.341-.36-.116-.714-.249-1.068-.381-.2-.075-.4-.15-.601-.222C.162 6.67.274 9.636 1.345 11.386c.599-.188 1.193-.377 1.792-.567h.001l1.633-.516a11.48 11.48 0 01.006-4.641 76.544 76.544 0 00-.527-.14zm8.696-.365l-1.716.545c.316 1.533.304 3.09 0 4.594 1.16.369 2.29.726 3.431 1.083 1.125-1.926 1.113-4.852 0-6.766l-1.715.544zM5.72 10.227a10.424 10.424 0 01-.018-4.401c.239.014.473.03.705.047.54.038 1.066.076 1.59.076.525 0 1.05-.038 1.59-.076.232-.016.467-.033.706-.047.322 1.434.31 2.903-.006 4.395a16.81 16.81 0 00-4.568.006zm8.45 2.048c-1.36 1.879-3.163 2.938-5.529 3.225 1.09-1.276 1.868-2.657 2.343-4.214 1.1.21 2.143.527 3.185.99zM7.359.5c-2.366.28-4.17 1.346-5.575 3.283 1.101.34 2.138.662 3.21.995C5.49 3.157 6.263 1.782 7.358.5zm0 15c-2.36-.28-4.158-1.34-5.575-3.283l1.037-.32h.001l2.171-.67A11.673 11.673 0 007.36 15.5zM10.04 4.86a10.412 10.412 0 00-2.043-3.664C7.06 2.303 6.381 3.496 5.96 4.86a15.13 15.13 0 004.082 0zm-2.037 9.943a10.336 10.336 0 01-2.044-3.657c1.365-.193 2.7-.188 4.088-.006a10.567 10.567 0 01-2.044 3.663z"/></svg><svg viewBox="0 0 32 32" id="ln" xmlns="http://www.w3.org/2000/svg"><g clip-path="url(#fa)"><path fill-rule="evenodd" clip-rule="evenodd" d="M0 16c0 8.82 7.176 16 16 16 8.82 0 16-7.18 16-16S24.82 0 16 0 0 7.18 0 16zM5.942 4.97A14.877 14.877 0 0116 1.065c3.87 0 7.4 1.479 10.056 3.901l-1.188 1.188A13.201 13.201 0 0016 2.75c-3.412 0-6.522 1.29-8.87 3.407L5.941 4.969zm-.974.974A14.877 14.877 0 001.066 16c0 3.87 1.479 7.4 3.9 10.055l1.188-1.187A13.201 13.201 0 012.75 16c0-3.41 1.288-6.52 3.405-8.869L4.968 5.944zM5.94 27.03A14.877 14.877 0 0016 30.934c3.87 0 7.4-1.478 10.055-3.9l-1.188-1.188A13.201 13.201 0 0116 29.25c-3.412 0-6.523-1.29-8.871-3.407L5.94 27.03zM30.934 16a14.88 14.88 0 01-3.905 10.06l-1.187-1.188A13.201 13.201 0 0029.25 16c0-3.412-1.29-6.522-3.407-8.87l1.187-1.188A14.877 14.877 0 0130.934 16z"/><path d="M9.875 10.752c0-.484.403-.877.9-.877h10.45c.497 0 .9.393.9.877v10.496a.889.889 0 01-.9.877h-10.45a.889.889 0 01-.9-.877V10.752zm3.784 9.378v-5.532h-1.838v5.532h1.838zm-.918-6.287c.64 0 1.04-.425 1.04-.956-.012-.543-.399-.956-1.028-.956-.63 0-1.04.414-1.04.956 0 .531.398.955 1.016.955h.012zm3.757 6.287v-3.09c0-.165.013-.33.062-.448.132-.33.434-.672.943-.672.665 0 .93.507.93 1.25v2.96h1.84v-3.173c0-1.7-.907-2.49-2.117-2.49-.975 0-1.413.536-1.658.914v.019h-.012l.012-.02v-.782h-1.837c.023.52 0 5.532 0 5.532h1.837z"/></g><defs><clipPath id="fa"><path d="M0 0h32v32H0z"/></clipPath></defs></svg><svg viewBox="0 0 100 100" id="m" xmlns="http://www.w3.org/2000/svg"><path d="M49.545 99.123C22.222 99.123 0 76.891 0 49.578 0 22.266 22.233.033 49.545.033S99.09 22.266 99.09 49.578c0 27.313-22.233 49.545-49.545 49.545zm0-95.79c-25.501 0-46.246 20.744-46.246 46.245 0 25.501 20.745 46.246 46.246 46.246s46.246-20.745 46.246-46.246c0-25.5-20.745-46.245-46.246-46.245z"/><path d="M81.873 14.224L66.535 29.562l3.017 3.018 15.339-15.338-3.018-3.018zM29.076 67.023L13.738 82.361l3.018 3.018L32.094 70.04l-3.018-3.018zm40.941-.003L67 70.038l15.338 15.338 3.018-3.017L70.017 67.02zm-53.25-53.26l-3.017 3.017 15.33 15.33 3.018-3.017-15.33-15.33zm44.874 37.15c1-.998 1-2.612 0-3.6l-2.123-2.114a2.54 2.54 0 00-3.602 0l-1.145 1.145-1.322-1.322a2.538 2.538 0 00-3.601 0l-1.145 1.156-1.322-1.333a2.538 2.538 0 00-3.601 0l-7.026 7.026c-.052.052-.052.136 0 .198a2.425 2.425 0 003.414 0l4.528-4.528a1.25 1.25 0 011.77 0l.332.333a.15.15 0 010 .219l-3.778 3.778c-.052.052-.052.136 0 .198a2.425 2.425 0 003.414 0l4.34-4.34a1.25 1.25 0 011.77 0l.333.333c.052.052.052.135 0 .198L49.234 51.9c-.052.052-.052.135 0 .197a2.425 2.425 0 003.414 0l4.194-4.194a1.25 1.25 0 011.77 0l.718.718a.735.735 0 010 1.03l-.114.115a.735.735 0 01-1.03 0l-.927-.927c-.052-.052-.135-.052-.198 0l-1.603 1.603c-.052.052-.052.136 0 .198l1.447 1.447c1 1 2.613 1 3.601 0l1.145-1.145-.01-.031z"/><path d="M49.546 11.576c-20.984 0-37.991 17.008-37.991 37.992 0 20.984 17.007 37.991 37.991 37.991 20.984 0 37.992-17.007 37.992-37.991 0-20.984-17.008-37.992-37.992-37.992zm1.551 11.73c6.1.355 11.637 2.79 15.925 6.6l-5.485 5.485a18.517 18.517 0 00-10.44-4.33v-7.754zm-3.091 0v7.755a18.446 18.446 0 00-10.44 4.33l-5.486-5.485a26.214 26.214 0 0115.926-6.6zm-18.111 8.786l5.485 5.485a18.517 18.517 0 00-4.33 10.44h-7.755a26.215 26.215 0 016.6-15.925zm-6.6 19.016h7.755a18.446 18.446 0 004.33 10.44l-5.485 5.486a26.214 26.214 0 01-6.6-15.926zm24.71 24.71A26.214 26.214 0 0132.08 69.22l5.486-5.485a18.517 18.517 0 0010.44 4.33v7.755zM33.58 49.558c0-8.817 7.151-15.967 15.967-15.967s15.967 7.15 15.967 15.966c0 8.817-7.15 15.967-15.967 15.967-8.816 0-15.967-7.15-15.967-15.967zm17.518 26.26v-7.754a18.446 18.446 0 0010.44-4.33l5.485 5.485a26.214 26.214 0 01-15.925 6.6zm18.11-8.784l-5.484-5.486a18.517 18.517 0 004.33-10.44h7.754a26.214 26.214 0 01-6.6 15.926zm-1.154-19.017a18.445 18.445 0 00-4.33-10.44l5.485-5.485a26.215 26.215 0 016.6 15.925h-7.755z"/></svg><svg viewBox="0 0 100 100" id="shield" xmlns="http://www.w3.org/2000/svg"><path d="M49.983 99.933c-12.699 0-25.387-4.83-35.057-14.5-19.329-19.329-19.329-50.773 0-70.102C24.294 5.963 36.743.811 49.983.811c13.24 0 25.688 5.152 35.056 14.52 19.329 19.329 19.329 50.773 0 70.102-9.66 9.66-22.358 14.5-35.056 14.5zM17.529 82.83c17.892 17.893 47.005 17.893 64.897 0 17.893-17.892 17.893-47.005 0-64.898-8.67-8.67-20.193-13.437-32.454-13.437S26.188 9.273 17.518 17.933c-17.892 17.893-17.892 47.006 0 64.898h.01z"/><path d="M49.327 68.936c.177.426.593.676 1.03.676.146 0 .292-.031.438-.083a25.698 25.698 0 009.2-6.568 1.117 1.117 0 00-.093-1.572 1.117 1.117 0 00-1.572.094 23.264 23.264 0 01-8.4 5.995c-.561.24-.832.895-.593 1.458h-.01z"/><path d="M68.873 33.244l-18.486-7.39a1.15 1.15 0 00-.833 0l-18.485 7.39a1.096 1.096 0 00-.698 1.03v13.24c.021 12.22 7.744 23.264 19.215 27.469a1.195 1.195 0 00.77 0c11.47-4.216 19.193-15.249 19.214-27.469v-13.24c0-.457-.27-.863-.697-1.03zm-1.53 14.27c-.021 11.117-6.995 21.244-17.362 25.23-10.367-3.986-17.351-14.113-17.372-25.23v-12.48l17.372-6.942 17.362 6.942v12.48z"/><path d="M42.258 34.982a1.103 1.103 0 00-.853 0l-4.403 1.76a1.096 1.096 0 00-.697 1.03v4.694a1.115 1.115 0 002.227 0v-3.934l3.695-1.478c.281-.115.49-.323.614-.604a1.1 1.1 0 000-.854 1.142 1.142 0 00-.593-.614h.01z"/><path d="M78.126 22.232C70.61 14.707 60.608 10.574 49.97 10.574c-10.638 0-20.63 4.143-28.156 11.658-15.519 15.52-15.519 40.78 0 56.31C29.58 86.308 39.77 90.18 49.971 90.18c10.2 0 20.39-3.882 28.155-11.636 15.52-15.52 15.52-40.781 0-56.311zM72.62 47.514c.031 14.125-8.993 26.48-22.452 30.758a.642.642 0 01-.395 0C36.314 73.994 27.29 61.639 27.32 47.514V31.892c0-.26.156-.5.406-.604l22.004-8.795a.611.611 0 01.24-.041c.083 0 .166.01.239.041l22.004 8.806c.25.094.406.333.406.604v15.623-.01z"/></svg><svg viewBox="0 0 100 100" id="soccer" xmlns="http://www.w3.org/2000/svg"><path d="M50.127 99.39C22.804 99.39.582 77.155.582 49.843.582 22.532 22.815.3 50.127.3s49.545 22.233 49.545 49.545S77.44 99.39 50.127 99.39zm0-95.791c-25.501 0-46.245 20.744-46.245 46.245 0 25.501 20.744 46.246 46.245 46.246 25.501 0 46.246-20.745 46.246-46.246S75.628 3.6 50.127 3.6z"/><path d="M66.198 18.9c-.25 0-.5-.053-.729-.167a34.317 34.317 0 00-15.342-3.58 34.317 34.317 0 00-15.343 3.58 1.647 1.647 0 01-1.894-.312l-8.514-8.515a1.642 1.642 0 01-.469-1.374c.063-.51.354-.957.791-1.217A49.456 49.456 0 0150.139.289a49.557 49.557 0 0125.438 7.026c.437.26.728.707.79 1.217.063.51-.114 1.01-.468 1.374l-8.514 8.515a1.68 1.68 0 01-1.176.479h-.01zm-16.071-7.047a37.642 37.642 0 0115.727 3.403l6.162-6.161a46.152 46.152 0 00-21.89-5.507 46.153 46.153 0 00-21.889 5.507l6.162 6.161a37.642 37.642 0 0115.728-3.403zm-.002 87.537a49.557 49.557 0 01-25.439-7.026 1.646 1.646 0 01-.79-1.218c-.063-.51.114-1.01.468-1.374l8.514-8.515c.5-.5 1.27-.624 1.894-.312a34.317 34.317 0 0015.343 3.58 34.317 34.317 0 0015.342-3.58 1.647 1.647 0 011.894.312l8.514 8.515c.365.364.531.864.469 1.374a1.65 1.65 0 01-.791 1.218 49.456 49.456 0 01-25.439 7.025h.02zm-21.89-8.806a46.152 46.152 0 0021.89 5.506c7.66 0 15.186-1.895 21.89-5.506l-6.163-6.162a37.642 37.642 0 01-15.727 3.403 37.642 37.642 0 01-15.727-3.403l-6.162 6.162zm62.998-14.51c-.437 0-.854-.166-1.166-.479l-8.514-8.514a1.65 1.65 0 01-.312-1.894 34.318 34.318 0 003.58-15.343 34.317 34.317 0 00-3.58-15.342 1.644 1.644 0 01.312-1.894l8.514-8.515c.364-.364.864-.53 1.374-.468.51.062.958.354 1.218.791a49.456 49.456 0 017.026 25.439 49.457 49.457 0 01-7.026 25.438c-.26.438-.708.729-1.218.791h-.208v-.01zm-6.526-10.513l6.162 6.162a46.152 46.152 0 005.506-21.89c0-7.66-1.895-15.185-5.507-21.888l-6.161 6.161a37.64 37.64 0 013.403 15.728 37.64 37.64 0 01-3.403 15.727zM9.023 76.074c-.072 0-.135 0-.197-.01a1.645 1.645 0 01-1.218-.791 49.456 49.456 0 01-7.026-25.44 49.456 49.456 0 017.026-25.438c.26-.437.708-.728 1.218-.79.51-.063 1.01.114 1.374.468l8.514 8.514c.5.5.624 1.27.312 1.894a34.317 34.317 0 00-3.58 15.343 34.316 34.316 0 003.58 15.342 1.645 1.645 0 01-.312 1.894L10.2 75.574c-.313.313-.729.49-1.166.49l-.01.01zm.365-48.13a46.152 46.152 0 00-5.506 21.89c0 7.66 1.894 15.186 5.506 21.89l6.162-6.163a37.64 37.64 0 01-3.404-15.727 37.64 37.64 0 013.404-15.728l-6.162-6.162z"/><path d="M50.128 11.853c-20.942 0-37.991 17.039-37.991 37.991 0 20.953 17.039 37.992 37.991 37.992 20.953 0 37.992-17.04 37.992-37.992 0-20.952-17.04-37.991-37.992-37.991zm21.38 25.511a24.472 24.472 0 013.247 10.014.369.369 0 01-.177.353 31.823 31.823 0 00-7.255 6.09.341.341 0 01-.385.104l-4.694-1.53a.36.36 0 01-.25-.302 32.675 32.675 0 00-3.59-11.054.368.368 0 01.03-.386l2.904-3.996a.395.395 0 01.302-.157h.084c3.101.687 6.286.916 9.45.656a.377.377 0 01.354.188l-.02.02zM59.433 52.748a.378.378 0 01-.084.281 24.853 24.853 0 01-9.076 6.579.332.332 0 01-.281 0 25.093 25.093 0 01-9.076-6.579.378.378 0 01-.084-.28 30.145 30.145 0 013.477-10.7.347.347 0 01.24-.178 27.175 27.175 0 015.589-.583c1.884 0 3.757.198 5.59.583a.353.353 0 01.239.177 30.354 30.354 0 013.476 10.7h-.01zm-.563-25.834s.125-.104.25-.104c.042 0 .094 0 .146.031 3.83 1.52 7.255 4.018 9.92 7.213a.345.345 0 01.052.386.357.357 0 01-.334.218 28.664 28.664 0 01-6.994-.78.37.37 0 01-.23-.167 29.498 29.498 0 01-2.903-6.422.345.345 0 01.104-.375h-.01zm-14-1.249a25.256 25.256 0 0110.524 0c.135.031.25.135.281.27a31.9 31.9 0 003.55 8.786.382.382 0 01-.021.406l-2.884 3.976a.361.361 0 01-.364.145 29.65 29.65 0 00-11.647 0 .36.36 0 01-.364-.145l-2.884-3.977a.381.381 0 01-.02-.405 31.903 31.903 0 003.549-8.785.373.373 0 01.28-.27zm-13.79 8.39c2.664-3.206 6.088-5.704 9.919-7.214a.35.35 0 01.396.073c.051.052.166.177.103.375a29.272 29.272 0 01-2.904 6.422.37.37 0 01-.228.166c-2.28.542-4.632.812-6.995.781a.357.357 0 01-.333-.218.345.345 0 01.052-.386h-.01zm-2.322 3.31a.367.367 0 01.323-.188h.031c3.175.25 6.36.031 9.451-.656a.352.352 0 01.375.146l2.904 3.997a.37.37 0 01.031.385 32.676 32.676 0 00-3.59 11.054.389.389 0 01-.25.302l-4.695 1.53a.379.379 0 01-.385-.104 31.826 31.826 0 00-7.255-6.09.389.389 0 01-.177-.353 24.422 24.422 0 013.248-10.013l-.01-.01zm1.135 25.646a.365.365 0 01-.312.25c-.073 0-.24 0-.354-.167a24.695 24.695 0 01-3.79-11.668.356.356 0 01.188-.343c.063-.031.23-.104.396.02a28.906 28.906 0 015.204 4.747.354.354 0 01.083.27 28.558 28.558 0 01-1.426 6.902l.01-.01zm10.284 9.503c-3.248-1.426-6.11-3.518-8.504-6.203a.376.376 0 01-.073-.385 31.85 31.85 0 002.29-9.191.358.358 0 01.25-.312l4.642-1.51s.073-.02.114-.02a.35.35 0 01.27.124 27.695 27.695 0 009.431 6.86.363.363 0 01.219.333v4.881a.352.352 0 01-.219.334 31.834 31.834 0 00-8.046 5.027.349.349 0 01-.385.052l.01.01zm16.372 1.03a.347.347 0 01-.27.292 25.032 25.032 0 01-12.282 0 .364.364 0 01-.271-.291.367.367 0 01.146-.375 29.03 29.03 0 016.13-3.487.331.331 0 01.281 0 29.555 29.555 0 016.131 3.487.382.382 0 01.146.375h-.01zm12.064-7.223a24.546 24.546 0 01-8.504 6.193.366.366 0 01-.385-.052 31.656 31.656 0 00-8.046-5.027.363.363 0 01-.218-.333V62.22c0-.145.083-.28.218-.333a27.592 27.592 0 009.43-6.86.35.35 0 01.271-.124c.042 0 .073 0 .114.02l4.643 1.51c.135.042.24.166.25.312a31.937 31.937 0 002.29 9.191.355.355 0 01-.073.385h.01zm2.436-3.216a.357.357 0 01-.354.167.359.359 0 01-.313-.25 29.597 29.597 0 01-1.426-6.901c0-.094.021-.198.084-.27a29.299 29.299 0 015.204-4.747.36.36 0 01.208-.073c.084 0 .146.031.188.052a.34.34 0 01.187.343 24.696 24.696 0 01-3.789 11.668l.01.01z"/></svg><svg viewBox="0 0 32 32" id="tg" xmlns="http://www.w3.org/2000/svg"><g clip-path="url(#ja)"><path fill-rule="evenodd" clip-rule="evenodd" d="M0 16c0 8.82 7.176 16 16 16 8.82 0 16-7.18 16-16S24.82 0 16 0 0 7.18 0 16zM5.942 4.97A14.877 14.877 0 0116 1.065c3.87 0 7.4 1.479 10.056 3.901l-1.188 1.188A13.201 13.201 0 0016 2.75c-3.412 0-6.522 1.29-8.87 3.407L5.941 4.969zm-.974.974A14.877 14.877 0 001.066 16c0 3.87 1.479 7.4 3.9 10.055l1.188-1.187A13.201 13.201 0 012.75 16c0-3.41 1.288-6.52 3.405-8.869L4.968 5.944zM5.94 27.03A14.877 14.877 0 0016 30.934c3.87 0 7.4-1.478 10.055-3.9l-1.188-1.188A13.201 13.201 0 0116 29.25c-3.412 0-6.523-1.29-8.871-3.407L5.94 27.03zM30.934 16a14.88 14.88 0 01-3.905 10.06l-1.187-1.188A13.201 13.201 0 0029.25 16c0-3.412-1.29-6.522-3.407-8.87l1.187-1.188A14.877 14.877 0 0130.934 16z"/><path d="M20.644 11.132s1.133-.442 1.038.631c-.031.442-.314 1.989-.535 3.662l-.755 4.955s-.063.726-.63.852c-.566.126-1.416-.442-1.574-.568-.126-.095-2.36-1.515-3.147-2.21-.221-.189-.473-.567.031-1.01l3.305-3.156c.378-.378.755-1.262-.819-.189l-4.407 2.998s-.503.316-1.447.032l-2.047-.631s-.755-.474.535-.947c3.148-1.483 7.02-2.998 10.451-4.419z"/></g><defs><clipPath id="ja"><path d="M0 0h32v32H0z"/></clipPath></defs></svg><svg viewBox="0 0 100 100" id="timer" xmlns="http://www.w3.org/2000/svg"><path d="M49.615 99.407c-12.698 0-25.386-4.83-35.056-14.5-19.329-19.328-19.329-50.772 0-70.101C23.927 5.438 36.376.286 49.615.286c13.24 0 25.689 5.152 35.057 14.52C104 34.135 104 65.579 84.672 84.908c-9.66 9.66-22.358 14.5-35.057 14.5zM17.161 82.306c17.893 17.892 47.005 17.892 64.898 0 17.892-17.893 17.892-47.006 0-64.898C73.389 8.738 61.866 3.97 49.605 3.97S25.82 8.748 17.15 17.408C-.742 35.3-.742 64.413 17.15 82.306h.01z"/><path d="M51.45 39.422l-9.18 12.865h5.506v9.18l9.18-12.854H51.45v-9.19z"/><path d="M49.606 32.272c-10.055 0-18.215 8.16-18.215 18.215 0 10.054 8.16 18.194 18.215 18.194 10.054 0 18.215-8.16 18.215-18.194 0-10.034-8.16-18.215-18.215-18.215zm0 34.16c-8.827 0-15.988-7.16-15.988-15.987s7.161-15.988 15.988-15.988c8.826 0 15.988 7.161 15.988 15.988s-7.162 15.988-15.988 15.988z"/><path d="M77.763 21.707c-7.515-7.526-17.518-11.658-28.156-11.658-10.637 0-20.63 4.143-28.155 11.658-15.52 15.519-15.52 40.78 0 56.31 7.765 7.765 17.955 11.648 28.155 11.648 10.2 0 20.39-3.883 28.156-11.648 15.519-15.519 15.519-40.78 0-56.31zm-28.156 53.49c-13.614 0-24.7-11.085-24.7-24.7 0-6.016 2.155-11.533 5.736-15.842l-3.019-3.018a2.23 2.23 0 010-3.144c.864-.874 2.27-.864 3.144 0l3.018 3.019c3.747-3.133 8.462-5.194 13.604-5.631v-2.04h-2.04a3.31 3.31 0 01-3.29-3.29v-1.717a3.296 3.296 0 013.29-3.29h8.535c1.8 0 3.29 1.468 3.29 3.29v1.717a3.31 3.31 0 01-3.29 3.29h-2.04v2.04c5.152.447 9.857 2.508 13.604 5.63l3.019-3.018a2.23 2.23 0 013.143 0 2.23 2.23 0 010 3.144l-3.019 3.018c3.581 4.31 5.736 9.815 5.736 15.842 0 13.615-11.086 24.7-24.7 24.7h-.02z"/></svg><svg viewBox="0 0 32 32" id="tk" xmlns="http://www.w3.org/2000/svg"><g clip-path="url(#la)" fill-rule="evenodd" clip-rule="evenodd"><path d="M0 16c0 8.82 7.176 16 16 16 8.82 0 16-7.18 16-16S24.82 0 16 0 0 7.18 0 16zM5.942 4.97A14.877 14.877 0 0116 1.065c3.87 0 7.4 1.479 10.056 3.901l-1.188 1.188A13.201 13.201 0 0016 2.75c-3.412 0-6.522 1.29-8.87 3.407L5.941 4.969zm-.974.974A14.877 14.877 0 001.066 16c0 3.87 1.479 7.4 3.9 10.055l1.188-1.187A13.201 13.201 0 012.75 16c0-3.41 1.288-6.52 3.405-8.869L4.968 5.944zM5.94 27.03A14.877 14.877 0 0016 30.934c3.87 0 7.4-1.478 10.055-3.9l-1.188-1.188A13.201 13.201 0 0116 29.25c-3.412 0-6.523-1.29-8.871-3.407L5.94 27.03zM30.934 16a14.88 14.88 0 01-3.905 10.06l-1.187-1.188A13.201 13.201 0 0029.25 16c0-3.412-1.29-6.522-3.407-8.87l1.187-1.188A14.877 14.877 0 0130.934 16z"/><path d="M17.012 9.925c.373 0 .675.302.675.675a2.7 2.7 0 002.7 2.7.675.675 0 110 1.35 4.05 4.05 0 01-2.7-1.032V18.7a3.375 3.375 0 11-3.375-3.375.675.675 0 110 1.35 2.025 2.025 0 102.025 2.025v-8.1c0-.373.303-.675.675-.675z"/></g><defs><clipPath id="la"><path d="M0 0h32v32H0z"/></clipPath></defs></svg><svg viewBox="0 0 32 32" id="tw" xmlns="http://www.w3.org/2000/svg"><g clip-path="url(#ma)"><path fill-rule="evenodd" clip-rule="evenodd" d="M0 16c0 8.82 7.176 16 16 16 8.82 0 16-7.18 16-16S24.82 0 16 0 0 7.18 0 16zM5.942 4.97A14.877 14.877 0 0116 1.065c3.87 0 7.4 1.479 10.056 3.901l-1.188 1.188A13.201 13.201 0 0016 2.75c-3.412 0-6.522 1.29-8.87 3.407L5.941 4.969zm-.974.974A14.877 14.877 0 001.066 16c0 3.87 1.479 7.4 3.9 10.055l1.188-1.187A13.201 13.201 0 012.75 16c0-3.41 1.288-6.52 3.405-8.869L4.968 5.944zM5.94 27.03A14.877 14.877 0 0016 30.934c3.87 0 7.4-1.478 10.055-3.9l-1.188-1.188A13.201 13.201 0 0116 29.25c-3.412 0-6.523-1.29-8.871-3.407L5.94 27.03zM30.934 16a14.88 14.88 0 01-3.905 10.06l-1.187-1.188A13.201 13.201 0 0029.25 16c0-3.412-1.29-6.522-3.407-8.87l1.187-1.188A14.877 14.877 0 0130.934 16z"/><path d="M21.312 13.539v.374c0 3.768-2.754 8.087-7.791 8.087a7.416 7.416 0 01-4.188-1.291 5.366 5.366 0 004.054-1.171 2.66 2.66 0 01-1.587-.56 2.83 2.83 0 01-.971-1.42c.17.037.344.056.519.056.243 0 .486-.034.72-.101a2.712 2.712 0 01-1.578-.985 2.902 2.902 0 01-.616-1.803v-.037c.38.22.805.34 1.24.351a2.823 2.823 0 01-1.15-1.705 2.92 2.92 0 01.288-2.06 7.84 7.84 0 002.52 2.11c.974.513 2.04.806 3.13.862a2.479 2.479 0 01-.075-.651c-.02-.58.132-1.154.437-1.64a2.746 2.746 0 011.265-1.083 2.626 2.626 0 011.634-.132 2.703 2.703 0 011.41.867 5.493 5.493 0 001.74-.692 2.844 2.844 0 01-1.221 1.598 5.563 5.563 0 001.575-.471 5.74 5.74 0 01-1.355 1.497z"/></g><defs><clipPath id="ma"><path d="M0 0h32v32H0z"/></clipPath></defs></svg><svg viewBox="0 0 32 32" id="vk" xmlns="http://www.w3.org/2000/svg"><g clip-path="url(#na)"><path fill-rule="evenodd" clip-rule="evenodd" d="M0 16c0 8.82 7.176 16 16 16 8.82 0 16-7.18 16-16S24.82 0 16 0 0 7.18 0 16zM5.942 4.97A14.877 14.877 0 0116 1.065c3.87 0 7.4 1.479 10.056 3.901l-1.188 1.188A13.201 13.201 0 0016 2.75c-3.412 0-6.522 1.29-8.87 3.407L5.941 4.969zm-.974.974A14.877 14.877 0 001.066 16c0 3.87 1.479 7.4 3.9 10.055l1.188-1.187A13.201 13.201 0 012.75 16c0-3.41 1.288-6.52 3.405-8.869L4.968 5.944zM5.94 27.03A14.877 14.877 0 0016 30.934c3.87 0 7.4-1.478 10.055-3.9l-1.188-1.188A13.201 13.201 0 0116 29.25c-3.412 0-6.523-1.29-8.871-3.407L5.94 27.03zM30.934 16a14.88 14.88 0 01-3.905 10.06l-1.187-1.188A13.201 13.201 0 0029.25 16c0-3.412-1.29-6.522-3.407-8.87l1.187-1.188A14.877 14.877 0 0130.934 16z"/><path fill-rule="evenodd" clip-rule="evenodd" d="M9.311 12.54a.317.317 0 01.26-.14h2.213a.32.32 0 01.29.193c.135.298.265.599.395.897.3.69.593 1.365.908 1.938.223.406.446.738.673.974.096.1.19.18.28.239v-2.82l-.662-.867a.356.356 0 01-.04-.36.32.32 0 01.29-.194h3.075c.178 0 .322.152.322.34v3.187c.368-.383.655-.82.918-1.288.151-.27.292-.545.435-.827l.105-.205c.18-.35.369-.709.585-1.054a.318.318 0 01.268-.153h2.119c.1 0 .194.049.255.133a.355.355 0 01.056.294c-.405 1.623-1.195 2.757-1.948 3.837l-.089.128a10.327 10.327 0 012.403 3.476.357.357 0 01-.024.324.318.318 0 01-.27.155h-2.33a.312.312 0 01-.211-.082 6.944 6.944 0 01-.654-.706l-.117-.142a10.433 10.433 0 00-.453-.526c-.298-.315-.618-.573-1.048-.717v1.833c0 .171-.12.316-.282.337-2.614.351-4.372-1.007-5.556-2.747-1.138-1.671-1.773-3.73-2.174-5.032l-.037-.12a.356.356 0 01.045-.305zm.705.54c.404 1.298.997 3.07 1.984 4.52 1.049 1.54 2.517 2.682 4.671 2.5v-1.953c0-.099.04-.193.112-.258a.31.31 0 01.258-.078c.808.13 1.34.536 1.778 1 .172.182.334.379.489.567l.109.132c.165.198.327.386.503.557h1.696a9.58 9.58 0 00-2.239-2.962.354.354 0 01-.053-.46c.088-.13.177-.256.264-.383.682-.98 1.332-1.914 1.726-3.181h-1.512c-.162.273-.312.557-.462.85l-.102.2c-.144.282-.292.572-.45.855-.396.704-.874 1.395-1.608 1.948a.308.308 0 01-.335.025.343.343 0 01-.174-.302V13.08h-2.078l.31.405c.046.06.071.136.071.214v3.42a.35.35 0 01-.107.254.31.31 0 01-.252.084c-.393-.049-.73-.273-1.017-.57-.286-.298-.542-.69-.778-1.119-.331-.602-.645-1.325-.952-2.03a81.63 81.63 0 00-.288-.659h-1.564z"/><path d="M12 17.6c-.987-1.45-1.58-3.222-1.984-4.52h1.564c.096.215.192.436.288.659.307.705.62 1.428.952 2.03.236.43.492.821.778 1.119.287.297.623.521 1.017.57a.31.31 0 00.252-.084.349.349 0 00.107-.254V13.7a.352.352 0 00-.071-.214l-.31-.405h2.078v3.576c0 .127.067.244.174.302a.308.308 0 00.335-.025c.734-.553 1.212-1.244 1.607-1.948.159-.283.307-.573.45-.856l.103-.199c.15-.293.3-.577.462-.85h1.512c-.394 1.267-1.044 2.201-1.726 3.181l-.264.382a.354.354 0 00.053.46 9.58 9.58 0 012.239 2.963H19.92a7.05 7.05 0 01-.503-.557 35.681 35.681 0 01-.11-.132 11.327 11.327 0 00-.488-.567c-.438-.464-.97-.87-1.777-1a.31.31 0 00-.259.078.349.349 0 00-.112.258V20.1c-2.154.182-3.622-.96-4.671-2.5z"/></g><defs><clipPath id="na"><path d="M0 0h32v32H0z"/></clipPath></defs></svg><svg viewBox="0 0 100 222" id="world" xmlns="http://www.w3.org/2000/svg"><path d="M.547 50.461C.547 23.14 22.78.906 50.102.906c27.323 0 49.556 22.233 49.556 49.555 0 27.323-22.233 49.556-49.556 49.556C22.78 100.017.547 77.784.547 50.461zm95.54 0c0-25.355-20.63-45.985-45.985-45.985S4.117 25.106 4.117 50.46c0 25.356 20.63 45.986 45.985 45.986 25.356 0 45.986-20.63 45.986-45.986zM.544 171.607a1.78 1.78 0 113.56 0c0 25.356 20.63 45.986 45.985 45.986 25.356 0 45.986-20.63 45.986-45.986a1.78 1.78 0 113.56 0c0 27.323-22.234 49.556-49.556 49.556-27.323 0-49.556-22.233-49.556-49.556h.021z"/><path d="M98.143 49.264H76.441v4.278h21.702v-4.278zm-74.723 0H1.72v4.278h21.7v-4.278zm28.99 28.978h-4.277v21.702h4.278V78.242zm0-75.379h-4.277v21.701h4.278V2.863z"/><path d="M75.786 24.252c-14.843-14.843-38.918-14.843-53.771 0-14.843 14.843-14.843 38.918 0 53.771 14.842 14.843 38.918 14.843 53.77 0 14.844-14.842 14.844-38.918 0-53.77zm-19.537 3.216a24.787 24.787 0 0111.23 7.266l.584.655-.854.198a71.337 71.337 0 01-7.172 1.29l-.447.063-.125-.437a32.85 32.85 0 00-1.468-4.07c-.697-1.592-1.478-2.987-2.331-4.163l-.937-1.28 1.52.468v.01zM38.877 49.951l.02-.541c.105-3.29.469-6.433 1.093-9.326l.094-.458.468.041a94.965 94.965 0 0016.769-.052l.468-.041.104.458c.635 2.925 1 6.078 1.093 9.378v.541H38.877zm20.11 2.415v.541c-.115 3.3-.48 6.454-1.114 9.378l-.105.458-.468-.041c-5.444-.51-11.293-.52-16.768-.052l-.469.041-.093-.458c-.625-2.893-.99-6.026-1.093-9.326l-.021-.541h20.13zM48.93 26.563c3.03 0 6.11 3.84 8.036 10.034l.198.624-.656.052a92.817 92.817 0 01-15.176.042l-.656-.052.198-.635c1.926-6.214 5.017-10.076 8.056-10.076v.01zm-18.65 8.285a24.809 24.809 0 0111.335-7.37l1.53-.468-.947 1.291c-.853 1.166-1.645 2.571-2.331 4.153a33.593 33.593 0 00-1.489 4.143l-.125.427-.447-.053a70.813 70.813 0 01-7.245-1.259l-.864-.198.583-.666zM24.201 49.39a24.852 24.852 0 013.767-11.46l.209-.323.374.094a71.857 71.857 0 008.556 1.603l.562.073-.114.562c-.625 3.018-.979 6.214-1.072 9.503v.51H24.169l.042-.562h-.01zm3.976 15.321l-.209-.322a24.812 24.812 0 01-3.767-11.46l-.042-.562h12.303v.51c.104 3.289.468 6.495 1.082 9.503l.115.562-.562.073a72.233 72.233 0 00-8.556 1.603l-.375.093h.01zM41.614 74.85a24.808 24.808 0 01-11.335-7.37l-.583-.666.864-.198c2.29-.52 4.726-.947 7.245-1.26l.447-.051.125.427a33.6 33.6 0 001.489 4.142c.697 1.593 1.478 2.987 2.331 4.164l.947 1.29-1.53-.468v-.01zm7.318.905c-3.04 0-6.131-3.862-8.057-10.076l-.198-.634.656-.052a93.49 93.49 0 0115.176.041l.656.052-.198.625c-1.936 6.183-5.017 10.034-8.035 10.034v.01zm18.548-8.17a24.842 24.842 0 01-11.231 7.264l-1.52.469.937-1.28c.853-1.166 1.634-2.571 2.331-4.164a35.326 35.326 0 001.468-4.07l.125-.437.447.063a71.62 71.62 0 017.172 1.29l.853.209-.582.655zm6.172-14.656a24.79 24.79 0 01-3.84 11.585l-.209.322-.375-.093c-2.633-.698-5.495-1.25-8.493-1.655l-.562-.073.114-.552c.625-3.018.99-6.235 1.083-9.576v-.51h12.313l-.041.562.01-.01zM61.391 49.95v-.51c-.105-3.341-.469-6.568-1.093-9.576l-.115-.552.562-.072c2.998-.406 5.85-.958 8.494-1.655l.374-.094.209.323a24.638 24.638 0 013.84 11.584l.042.563H61.401l-.01-.01zM.484 172.357V52.762a1.78 1.78 0 113.56 0v119.595a1.78 1.78 0 11-3.56 0zm95.551.271V53.032a1.78 1.78 0 113.56 0v119.596a1.779 1.779 0 11-3.56 0z"/></svg><svg viewBox="0 0 32 32" id="yt" xmlns="http://www.w3.org/2000/svg"><g clip-path="url(#pa)"><path fill-rule="evenodd" clip-rule="evenodd" d="M0 16c0 8.82 7.176 16 16 16 8.82 0 16-7.18 16-16S24.82 0 16 0 0 7.18 0 16zM5.942 4.97A14.877 14.877 0 0116 1.065c3.87 0 7.4 1.479 10.056 3.901l-1.188 1.188A13.201 13.201 0 0016 2.75c-3.412 0-6.522 1.29-8.87 3.407L5.941 4.969zm-.974.974A14.877 14.877 0 001.066 16c0 3.87 1.479 7.4 3.9 10.055l1.188-1.187A13.201 13.201 0 012.75 16c0-3.41 1.288-6.52 3.405-8.869L4.968 5.944zM5.94 27.03A14.877 14.877 0 0016 30.934c3.87 0 7.4-1.478 10.055-3.9l-1.188-1.188A13.201 13.201 0 0116 29.25c-3.412 0-6.523-1.29-8.871-3.407L5.94 27.03zM30.934 16a14.88 14.88 0 01-3.905 10.06l-1.187-1.188A13.201 13.201 0 0029.25 16c0-3.412-1.29-6.522-3.407-8.87l1.187-1.188A14.877 14.877 0 0130.934 16z"/><path d="M14.667 18l3.46-2-3.46-2v4zm7.706-5.22c.087.313.147.733.187 1.267.047.533.067.993.067 1.393l.04.56c0 1.46-.107 2.533-.294 3.22-.166.6-.553.987-1.153 1.153-.313.087-.887.147-1.767.187a44.09 44.09 0 01-2.393.067l-1.06.04c-2.793 0-4.533-.107-5.22-.294-.6-.166-.987-.553-1.153-1.153-.087-.313-.147-.733-.187-1.267a16.042 16.042 0 01-.067-1.393l-.04-.56c0-1.46.107-2.533.294-3.22.166-.6.553-.987 1.153-1.153.313-.087.887-.147 1.767-.187a44.09 44.09 0 012.393-.067l1.06-.04c2.793 0 4.533.107 5.22.294.6.166.987.553 1.153 1.153z"/></g><defs><linearGradient id="pb" x1="32" y1="0" x2="-5.647" y2="9.412" gradientUnits="userSpaceOnUse"><stop stop-color="#478BF9"/><stop offset="1" stop-color="#9DADF2"/></linearGradient><clipPath id="pa"><path d="M0 0h32v32H0z"/></clipPath></defs></svg></svg>